<?xml version="1.0" encoding="iso-8859-1"?>
<!-- Generator: Adobe Illustrator 17.1.0, SVG Export Plug-In . SVG Version: 6.00 Build 0)  -->
<!DOCTYPE svg PUBLIC "-//W3C//DTD SVG 1.1//EN" "http://www.w3.org/Graphics/SVG/1.1/DTD/svg11.dtd">
<svg version="1.1" id="Capa_1" xmlns="http://www.w3.org/2000/svg" xmlns:xlink="http://www.w3.org/1999/xlink" x="0px" y="0px"
	 viewBox="0 0 200 200" style="enable-background:new 0 0 200 200;" xml:space="preserve">
<g>
	<path style="fill:#010101;" d="M26.086,145.39v36.957c0,6.809,5.51,12.319,12.319,12.319h123.191
		c6.809,0,12.319-5.51,12.319-12.319V145.39c0-20.415-16.529-36.957-36.957-36.957h-3.159c-1.657,0-2.985,1.347-3.144,2.996
		C129.148,127.034,116,139.231,100,139.231s-29.148-12.197-30.654-27.802c-0.159-1.649-1.487-2.996-3.144-2.996h-3.159
		C42.639,108.433,26.086,124.975,26.086,145.39z"/>
	<path style="fill:#010101;" d="M100,106.509c24.469,0,44.313-22.676,44.313-50.644S124.469,5.222,100,5.222
		S55.687,27.898,55.687,55.866S75.531,106.509,100,106.509z M100,55.866c11.561,0,21.205-5.848,24.246-13.798
		c4.55,5.483,7.406,12.438,7.406,20.129c0,17.483-14.182,31.652-31.652,31.652c-17.483,0-31.652-14.169-31.652-31.652
		C68.348,54.506,88.439,55.866,100,55.866z"/>
</g>
</svg>
